# xmcd CD database file
#
# Track frame offsets:
#	150
#	23138
#	51798
#	69865
#	96488
#	115915
#	132565
#	156868
#	161965
#	180565
#	189563
#	208690
#
# Disc length: 2962 seconds
#
# Revision: 0
# Processed by: cddbd v1.4PL0 Copyright (c) Steve Scherf et al.
# Submitted via: CDex 1.50Beta7
#
DISCID=ab0b900c
DTITLE=Phil Fest - Acoustic Shores
DYEAR=1995
DGENRE=Jazz
TTITLE0=Brazilian Ting
TTITLE1=Shoreline Drive
TTITLE2=Calm Waves
TTITLE3=Beneath It All
TTITLE4=Landing
TTITLE5=Happy Mon
TTITLE6=Papaya Dreaming
TTITLE7=Berimbau
TTITLE8=Will It Rain
TTITLE9=Mystic Ride
TTITLE10=Pearl Diving
TTITLE11=Dusk
EXTD=YEAR: 1995
EXTT0=
EXTT1=
EXTT2=
EXTT3=
EXTT4=
EXTT5=
EXTT6=
EXTT7=
EXTT8=
EXTT9=
EXTT10=
EXTT11=
PLAYORDER=
